{"title":"Rugby.Union.Dragons.v.Warriors.2013.02.15.pdtv.x264","uid":8150267,"size":1433708040,"categoryP":"video","categoryS":"tv_shows","magnet":"?xt=urn:btih:502d25c8f5acfc65fe2defb2305727be65e21872&amp;dn=Rugby.Union.Dragons.v.Warriors.2013.02.15.pdtv.x264&amp;tr=udp%3A%2F%2Ftracker.openbittorrent.com%3A80&amp;tr=udp%3A%2F%2Fopen.demonii.com%3A1337&amp;tr=udp%3A%2F%2Ftracker.coppersurfer.tk%3A6969&amp;tr=udp%3A%2F%2Fexodus.desync.com%3A6969","seeders":1,"leechers":0,"uploader":"rugbybill","files":2,"time":1361020938,"description":"SPORT: Scrum V Live - Dragons v Warriors\nOn: BBC 2 Wales\nDate: Friday 15th February 2013\nTime: 19:00 to 21:00 \n\nThe Dragons welcome the Warriors to Rodney Parade for this Pro 12 encounter. Martyn Williams joins Ross Harries in the studio, Sean Holley is in the analysis truck and Phil Steele is roving the touchline. Gareth Charles commentates.\n\n\nGeneral\nComplete name: 2013.02.15.Dragons.v.Warriors.pdtv.x264.mkv\nFormat: Matroska\nFormat version: Version 4 / Version 2\nFile size: 1.34 GiB\nDuration: 1h 58mn\nOverall bit rate: 1 609 Kbps\nEncoded date: UTC 2013-02-16 03:20:09\nWriting application: mkvmerge v6.0.0 ('Coming Up For Air') built on Jan 20 2013 09:52:00\nWriting library: libebml v1.3.0 + libmatroska v1.4.0\n\nVideo\nID: 1\nFormat: AVC\nFormat/Info: Advanced Video Codec\nFormat profile: &lt;a class=&quot;__cf_email__&quot; href=&quot;/cdn-cgi/l/email-protection&quot; data-cfemail=&quot;98d0f1fff0d8d4abb6a9&quot;&gt;[email&amp;#160;protected]&lt;/a&gt;&lt;script cf-hash='f9e31' type=&quot;text/javascript&quot;&gt;\n/* &lt;![CDATA[ */!function(){try{var t=&quot;currentScript&quot;in document?document.currentScript:function(){for(var t=document.getElementsByTagName(&quot;script&quot;),e=t.length;e--;)if(t[e].getAttribute(&quot;cf-hash&quot;))return t[e]}();if(t&amp;&amp;t.previousSibling){var e,r,n,i,c=t.previousSibling,a=c.getAttribute(&quot;data-cfemail&quot;);if(a){for(e=&quot;&quot;,r=parseInt(a.substr(0,2),16),n=2;a.length-n;n+=2)i=parseInt(a.substr(n,2),16)^r,e+=String.fromCharCode(i);e=document.createTextNode(e),c.parentNode.replaceChild(e,c)}}}catch(u){}}();/* ]]&gt; */&lt;/script&gt;\nFormat settings, CABAC: Yes\nFormat settings, ReFrames: 8 frames\nCodec ID: V_MPEG4/ISO/AVC\nDuration: 1h 58mn\nBit rate: 1 449 Kbps\nWidth: 688 pixels\nHeight: 560 pixels\nDisplay aspect ratio: 16:9\nOriginal display aspect ratio: 16:9\nFrame rate mode: Constant\nFrame rate: 25.000 fps\nColor space: YUV\nChroma subsampling: 4:2:0\nBit depth: 8 bits\nScan type: Progressive\nBits/(Pixel*Frame): 0.150\nStream size: 1.20 GiB (90%)\nWriting library: x264 core 129 r2245 bc13772\n\nAudio\nID: 2\nFormat: AC-3\nFormat/Info: Audio Coding 3\nMode extension: CM (complete main)\nFormat settings, Endianness: Big\nCodec ID: A_AC3\nDuration: 1h 58mn\nBit rate mode: Constant\nBit rate: 128 Kbps\nChannel(s): 2 channels\nChannel positions: Front: L R\nSampling rate: 48.0 KHz\nBit depth: 16 bits\nCompression mode: Lossy\nStream size: 109 MiB (8%)\n\n","torrent":{"xt":"urn:btih:502d25c8f5acfc65fe2defb2305727be65e21872","amp;dn":"Rugby.Union.Dragons.v.Warriors.2013.02.15.pdtv.x264","amp;tr":["udp%3A%2F%2Ftracker.openbittorrent.com%3A80","udp%3A%2F%2Fopen.demonii.com%3A1337","udp%3A%2F%2Ftracker.coppersurfer.tk%3A6969","udp%3A%2F%2Fexodus.desync.com%3A6969"],"infoHash":"502d25c8f5acfc65fe2defb2305727be65e21872","infoHashBuffer":{"type":"Buffer","data":[80,45,37,200,245,172,252,101,254,45,239,178,48,87,39,190,101,226,24,114]},"announce":[],"urlList":[]}}